<svg xmlns="http://www.w3.org/2000/svg" width="11.771" height="11.771" viewBox="0 0 11.771 11.771"><defs><style>.a{fill:#fff;}</style></defs><path class="a" d="M2.347,5.235A12.718,12.718,0,0,0,4.288,8.7,22.279,22.279,0,0,0,6.935,11.41a13.25,13.25,0,0,0,3.529,2c1.588.588,2,.294,2.058.235L13.7,12a.205.205,0,0,1,.059-.118.182.182,0,0,0-.059-.118L10.4,9.94a.263.263,0,0,0-.294,0l-.823,1c-.353.529-1.117,0-1.353-.176L7.817,10.7c-.059-.059-.471-.412-1.353-1.294A7.948,7.948,0,0,1,5.406,8.234l-.059-.059c-.529-.706-.765-1.059-.706-1.412,0-.118.118-.235.176-.353l1-.823c.118-.059.118-.176.059-.294L3.994,2.059C3.994,2,3.935,2,3.877,2H3.818l-.059.059L2.112,3.176C2.053,3.235,1.759,3.647,2.347,5.235Z" transform="translate(-1.987 -2)"/></svg>