<svg xmlns="http://www.w3.org/2000/svg" width="14.259" height="12.358" viewBox="0 0 14.259 12.358"><defs><style>.a{fill:#fff;}</style></defs><g transform="translate(0 0)"><path class="a" d="M13.833,3H2.426A1.427,1.427,0,0,0,1,4.426V11.08a1.427,1.427,0,0,0,1.426,1.426H8l4.64,2.784a.475.475,0,0,0,.72-.408V12.506h.475a1.427,1.427,0,0,0,1.426-1.426V4.426A1.427,1.427,0,0,0,13.833,3Zm.475,8.08a.476.476,0,0,1-.475.475h-.951a.475.475,0,0,0-.475.475v2.012l-4.033-2.42a.473.473,0,0,0-.245-.068h-5.7a.476.476,0,0,1-.475-.475V4.426a.476.476,0,0,1,.475-.475H13.833a.476.476,0,0,1,.475.475ZM11.932,6.327a.475.475,0,0,1-.475.475h-7.6a.475.475,0,0,1,0-.951h7.6A.475.475,0,0,1,11.932,6.327ZM8.6,9.179a.475.475,0,0,1-.475.475H3.852a.475.475,0,0,1,0-.951H8.129A.475.475,0,0,1,8.6,9.179Z" transform="translate(-1 -3)"/></g></svg>