<svg xmlns="http://www.w3.org/2000/svg" width="15.432" height="10.256" viewBox="0 0 15.432 10.256"><defs><style>.a{fill:#fff;}</style></defs><path class="a" d="M2.309,5.2A.346.346,0,0,0,2,5.574v9.507a.359.359,0,0,0,.386.374h14.66a.359.359,0,0,0,.386-.374V5.574a.359.359,0,0,0-.386-.374Zm13.5,9.507H3.235l.309-.3L7.4,10.665l.077-.075.154.075,1.852,1.572a.4.4,0,0,0,.463,0L11.8,10.665l.154-.075.077.075,3.858,3.743.309.3Zm.926-8.384v7.86l-.309-.3-3.858-3.743-.154-.15.154-.15,3.858-3.369ZM3.7,5.874H16.2l-.309.3L9.87,11.413l-.154.075-.077-.075L3.62,6.173l-.386-.3Zm-1,7.935V6.323L3,6.547,6.861,9.916l.154.15-.154.15L3,13.959l-.309.3Z" transform="translate(-2 -5.2)"/></svg>